<svg width="221" height="35" viewBox="0 0 221 35" fill="none" xmlns="http://www.w3.org/2000/svg">
<mask id="path-1-outside-1_5_853" maskUnits="userSpaceOnUse" x="1" y="3" width="219" height="33" fill="black">
<rect fill="white" x="1" y="3" width="219" height="33"/>
<path d="M2.368 5.984H21.408V11.264H9.44V14.304H19.68V19.36H9.44V22.72H21.632V28H2.368V5.984ZM29.6217 10.72C31.9684 10.72 33.7604 11.648 34.9978 13.504L35.5418 11.104H40.7257V34.304H34.3577V26.464C33.1631 27.744 31.5844 28.384 29.6217 28.384C27.3391 28.384 25.5791 27.648 24.3417 26.176C23.1044 24.6827 22.4857 22.4853 22.4857 19.584C22.4857 16.6613 23.1044 14.4533 24.3417 12.96C25.5791 11.4667 27.3391 10.72 29.6217 10.72ZM31.6058 15.424C29.7711 15.424 28.8538 16.512 28.8538 18.688V20.384C28.8538 22.5813 29.7711 23.68 31.6058 23.68C32.5444 23.68 33.2484 23.3493 33.7178 22.688C34.1871 22.0053 34.4218 21.1307 34.4218 20.064V19.008C34.4218 17.9413 34.1871 17.0773 33.7178 16.416C33.2484 15.7547 32.5444 15.424 31.6058 15.424ZM55.0935 28L54.6775 25.44C54.0162 26.3573 53.1415 27.0827 52.0535 27.616C50.9868 28.128 49.8562 28.384 48.6615 28.384C46.6988 28.384 45.2268 27.84 44.2455 26.752C43.2642 25.664 42.7735 24.096 42.7735 22.048V11.104H49.1415V21.28C49.1415 22.0053 49.3228 22.592 49.6855 23.04C50.0695 23.4667 50.6028 23.68 51.2855 23.68C52.0748 23.68 52.7148 23.424 53.2055 22.912C53.6962 22.4 53.9415 21.7707 53.9415 21.024V11.104H60.3095V28H55.0935ZM62.6453 9.12V4.8H69.0133V9.12H62.6453ZM62.6453 28V11.104H69.0133V28H62.6453ZM82.4535 10.72C84.7362 10.72 86.4962 11.4667 87.7335 12.96C88.9708 14.4533 89.5895 16.6613 89.5895 19.584C89.5895 22.4853 88.9708 24.6827 87.7335 26.176C86.4962 27.648 84.7362 28.384 82.4535 28.384C80.4908 28.384 78.9122 27.744 77.7175 26.464V34.304H71.3495V11.104H76.5335L77.0775 13.504C78.3148 11.648 80.1068 10.72 82.4535 10.72ZM80.4695 15.424C79.5308 15.424 78.8268 15.7547 78.3575 16.416C77.8882 17.0773 77.6535 17.9413 77.6535 19.008V20.064C77.6535 21.1307 77.8882 22.0053 78.3575 22.688C78.8268 23.3493 79.5308 23.68 80.4695 23.68C82.3042 23.68 83.2215 22.5813 83.2215 20.384V18.688C83.2215 16.512 82.3042 15.424 80.4695 15.424ZM99.6372 10.72C102.731 10.72 105.088 11.4453 106.709 12.896C108.352 14.3467 109.173 16.5653 109.173 19.552V20.64H96.5012C96.5012 21.856 96.7679 22.7733 97.3012 23.392C97.8559 24.0107 98.7199 24.32 99.8932 24.32C100.96 24.32 101.739 24.096 102.229 23.648C102.741 23.2 102.997 22.6027 102.997 21.856H109.173C109.173 23.904 108.395 25.504 106.837 26.656C105.28 27.808 103.008 28.384 100.021 28.384C96.8852 28.384 94.4532 27.6587 92.7252 26.208C90.9972 24.736 90.1332 22.5173 90.1332 19.552C90.1332 16.6507 90.9759 14.4533 92.6612 12.96C94.3466 11.4667 96.6719 10.72 99.6372 10.72ZM99.8932 14.784C97.8879 14.784 96.7679 15.7333 96.5332 17.632H102.741C102.741 16.7573 102.485 16.064 101.973 15.552C101.483 15.04 100.789 14.784 99.8932 14.784ZM109.813 21.728V16.672H117.973V21.728H109.813ZM135.573 28L126.325 17.312V28H119.829V5.984H126.005L135.253 16.832V5.984H141.749V28H135.573ZM153.013 10.72C156.107 10.72 158.464 11.4453 160.085 12.896C161.728 14.3467 162.549 16.5653 162.549 19.552V20.64H149.877C149.877 21.856 150.144 22.7733 150.677 23.392C151.232 24.0107 152.096 24.32 153.269 24.32C154.336 24.32 155.115 24.096 155.605 23.648C156.117 23.2 156.373 22.6027 156.373 21.856H162.549C162.549 23.904 161.771 25.504 160.213 26.656C158.656 27.808 156.384 28.384 153.397 28.384C150.261 28.384 147.829 27.6587 146.101 26.208C144.373 24.736 143.509 22.5173 143.509 19.552C143.509 16.6507 144.352 14.4533 146.037 12.96C147.723 11.4667 150.048 10.72 153.013 10.72ZM153.269 14.784C151.264 14.784 150.144 15.7333 149.909 17.632H156.117C156.117 16.7573 155.861 16.064 155.349 15.552C154.859 15.04 154.165 14.784 153.269 14.784ZM182.282 28H174.858L171.658 22.688H171.53L168.298 28H161.226L167.722 19.04L161.866 11.104H169.354L172.042 15.584H172.17L174.858 11.104H181.898L175.946 19.2L182.282 28ZM194.857 28L194.441 25.44C193.78 26.3573 192.905 27.0827 191.817 27.616C190.751 28.128 189.62 28.384 188.425 28.384C186.463 28.384 184.991 27.84 184.009 26.752C183.028 25.664 182.537 24.096 182.537 22.048V11.104H188.905V21.28C188.905 22.0053 189.087 22.592 189.449 23.04C189.833 23.4667 190.367 23.68 191.049 23.68C191.839 23.68 192.479 23.424 192.969 22.912C193.46 22.4 193.705 21.7707 193.705 21.024V11.104H200.073V28H194.857ZM210.217 10.72C212.478 10.72 214.388 11.168 215.945 12.064C217.524 12.9387 218.313 14.304 218.313 16.16H212.393C212.393 15.5413 212.116 15.104 211.561 14.848C211.177 14.6347 210.697 14.528 210.121 14.528C208.585 14.528 207.817 14.8907 207.817 15.616C207.817 16.0213 208.084 16.3093 208.617 16.48C209.15 16.6507 210.025 16.832 211.241 17.024C212.734 17.2373 213.982 17.4933 214.985 17.792C215.988 18.0693 216.862 18.5813 217.609 19.328C218.356 20.0533 218.729 21.0773 218.729 22.4C218.729 24.5547 217.918 26.0907 216.297 27.008C214.697 27.9253 212.596 28.384 209.993 28.384C208.5 28.384 207.092 28.1813 205.769 27.776C204.446 27.3493 203.369 26.6987 202.537 25.824C201.705 24.9493 201.289 23.84 201.289 22.496H207.209V22.624C207.23 23.3493 207.529 23.8613 208.105 24.16C208.702 24.4373 209.332 24.576 209.993 24.576C211.764 24.576 212.649 24.16 212.649 23.328C212.649 22.9013 212.372 22.592 211.817 22.4C211.262 22.208 210.356 22.0053 209.097 21.792C207.582 21.536 206.334 21.2587 205.353 20.96C204.393 20.6613 203.55 20.16 202.825 19.456C202.1 18.7307 201.737 17.728 201.737 16.448C201.737 14.3787 202.516 12.9067 204.073 12.032C205.652 11.1573 207.7 10.72 210.217 10.72Z"/>
</mask>
<g filter="url(#filter0_i_5_853)">
<path d="M2.368 5.984H21.408V11.264H9.44V14.304H19.68V19.36H9.44V22.72H21.632V28H2.368V5.984ZM29.6217 10.72C31.9684 10.72 33.7604 11.648 34.9978 13.504L35.5418 11.104H40.7257V34.304H34.3577V26.464C33.1631 27.744 31.5844 28.384 29.6217 28.384C27.3391 28.384 25.5791 27.648 24.3417 26.176C23.1044 24.6827 22.4857 22.4853 22.4857 19.584C22.4857 16.6613 23.1044 14.4533 24.3417 12.96C25.5791 11.4667 27.3391 10.72 29.6217 10.72ZM31.6058 15.424C29.7711 15.424 28.8538 16.512 28.8538 18.688V20.384C28.8538 22.5813 29.7711 23.68 31.6058 23.68C32.5444 23.68 33.2484 23.3493 33.7178 22.688C34.1871 22.0053 34.4218 21.1307 34.4218 20.064V19.008C34.4218 17.9413 34.1871 17.0773 33.7178 16.416C33.2484 15.7547 32.5444 15.424 31.6058 15.424ZM55.0935 28L54.6775 25.44C54.0162 26.3573 53.1415 27.0827 52.0535 27.616C50.9868 28.128 49.8562 28.384 48.6615 28.384C46.6988 28.384 45.2268 27.84 44.2455 26.752C43.2642 25.664 42.7735 24.096 42.7735 22.048V11.104H49.1415V21.28C49.1415 22.0053 49.3228 22.592 49.6855 23.04C50.0695 23.4667 50.6028 23.68 51.2855 23.68C52.0748 23.68 52.7148 23.424 53.2055 22.912C53.6962 22.4 53.9415 21.7707 53.9415 21.024V11.104H60.3095V28H55.0935ZM62.6453 9.12V4.8H69.0133V9.12H62.6453ZM62.6453 28V11.104H69.0133V28H62.6453ZM82.4535 10.72C84.7362 10.72 86.4962 11.4667 87.7335 12.96C88.9708 14.4533 89.5895 16.6613 89.5895 19.584C89.5895 22.4853 88.9708 24.6827 87.7335 26.176C86.4962 27.648 84.7362 28.384 82.4535 28.384C80.4908 28.384 78.9122 27.744 77.7175 26.464V34.304H71.3495V11.104H76.5335L77.0775 13.504C78.3148 11.648 80.1068 10.72 82.4535 10.72ZM80.4695 15.424C79.5308 15.424 78.8268 15.7547 78.3575 16.416C77.8882 17.0773 77.6535 17.9413 77.6535 19.008V20.064C77.6535 21.1307 77.8882 22.0053 78.3575 22.688C78.8268 23.3493 79.5308 23.68 80.4695 23.68C82.3042 23.68 83.2215 22.5813 83.2215 20.384V18.688C83.2215 16.512 82.3042 15.424 80.4695 15.424ZM99.6372 10.72C102.731 10.72 105.088 11.4453 106.709 12.896C108.352 14.3467 109.173 16.5653 109.173 19.552V20.64H96.5012C96.5012 21.856 96.7679 22.7733 97.3012 23.392C97.8559 24.0107 98.7199 24.32 99.8932 24.32C100.96 24.32 101.739 24.096 102.229 23.648C102.741 23.2 102.997 22.6027 102.997 21.856H109.173C109.173 23.904 108.395 25.504 106.837 26.656C105.28 27.808 103.008 28.384 100.021 28.384C96.8852 28.384 94.4532 27.6587 92.7252 26.208C90.9972 24.736 90.1332 22.5173 90.1332 19.552C90.1332 16.6507 90.9759 14.4533 92.6612 12.96C94.3466 11.4667 96.6719 10.72 99.6372 10.72ZM99.8932 14.784C97.8879 14.784 96.7679 15.7333 96.5332 17.632H102.741C102.741 16.7573 102.485 16.064 101.973 15.552C101.483 15.04 100.789 14.784 99.8932 14.784ZM109.813 21.728V16.672H117.973V21.728H109.813ZM135.573 28L126.325 17.312V28H119.829V5.984H126.005L135.253 16.832V5.984H141.749V28H135.573ZM153.013 10.72C156.107 10.72 158.464 11.4453 160.085 12.896C161.728 14.3467 162.549 16.5653 162.549 19.552V20.64H149.877C149.877 21.856 150.144 22.7733 150.677 23.392C151.232 24.0107 152.096 24.32 153.269 24.32C154.336 24.32 155.115 24.096 155.605 23.648C156.117 23.2 156.373 22.6027 156.373 21.856H162.549C162.549 23.904 161.771 25.504 160.213 26.656C158.656 27.808 156.384 28.384 153.397 28.384C150.261 28.384 147.829 27.6587 146.101 26.208C144.373 24.736 143.509 22.5173 143.509 19.552C143.509 16.6507 144.352 14.4533 146.037 12.96C147.723 11.4667 150.048 10.72 153.013 10.72ZM153.269 14.784C151.264 14.784 150.144 15.7333 149.909 17.632H156.117C156.117 16.7573 155.861 16.064 155.349 15.552C154.859 15.04 154.165 14.784 153.269 14.784ZM182.282 28H174.858L171.658 22.688H171.53L168.298 28H161.226L167.722 19.04L161.866 11.104H169.354L172.042 15.584H172.17L174.858 11.104H181.898L175.946 19.2L182.282 28ZM194.857 28L194.441 25.44C193.78 26.3573 192.905 27.0827 191.817 27.616C190.751 28.128 189.62 28.384 188.425 28.384C186.463 28.384 184.991 27.84 184.009 26.752C183.028 25.664 182.537 24.096 182.537 22.048V11.104H188.905V21.28C188.905 22.0053 189.087 22.592 189.449 23.04C189.833 23.4667 190.367 23.68 191.049 23.68C191.839 23.68 192.479 23.424 192.969 22.912C193.46 22.4 193.705 21.7707 193.705 21.024V11.104H200.073V28H194.857ZM210.217 10.72C212.478 10.72 214.388 11.168 215.945 12.064C217.524 12.9387 218.313 14.304 218.313 16.16H212.393C212.393 15.5413 212.116 15.104 211.561 14.848C211.177 14.6347 210.697 14.528 210.121 14.528C208.585 14.528 207.817 14.8907 207.817 15.616C207.817 16.0213 208.084 16.3093 208.617 16.48C209.15 16.6507 210.025 16.832 211.241 17.024C212.734 17.2373 213.982 17.4933 214.985 17.792C215.988 18.0693 216.862 18.5813 217.609 19.328C218.356 20.0533 218.729 21.0773 218.729 22.4C218.729 24.5547 217.918 26.0907 216.297 27.008C214.697 27.9253 212.596 28.384 209.993 28.384C208.5 28.384 207.092 28.1813 205.769 27.776C204.446 27.3493 203.369 26.6987 202.537 25.824C201.705 24.9493 201.289 23.84 201.289 22.496H207.209V22.624C207.23 23.3493 207.529 23.8613 208.105 24.16C208.702 24.4373 209.332 24.576 209.993 24.576C211.764 24.576 212.649 24.16 212.649 23.328C212.649 22.9013 212.372 22.592 211.817 22.4C211.262 22.208 210.356 22.0053 209.097 21.792C207.582 21.536 206.334 21.2587 205.353 20.96C204.393 20.6613 203.55 20.16 202.825 19.456C202.1 18.7307 201.737 17.728 201.737 16.448C201.737 14.3787 202.516 12.9067 204.073 12.032C205.652 11.1573 207.7 10.72 210.217 10.72Z" fill="#2ED9FF"/>
</g>
<path d="M2.368 5.984V4.984H1.368V5.984H2.368ZM21.408 5.984H22.408V4.984H21.408V5.984ZM21.408 11.264V12.264H22.408V11.264H21.408ZM9.44 11.264V10.264H8.44V11.264H9.44ZM9.44 14.304H8.44V15.304H9.44V14.304ZM19.68 14.304H20.68V13.304H19.68V14.304ZM19.68 19.36V20.36H20.68V19.36H19.68ZM9.44 19.36V18.36H8.44V19.36H9.44ZM9.44 22.72H8.44V23.72H9.44V22.72ZM21.632 22.72H22.632V21.72H21.632V22.72ZM21.632 28V29H22.632V28H21.632ZM2.368 28H1.368V29H2.368V28ZM2.368 6.984H21.408V4.984H2.368V6.984ZM20.408 5.984V11.264H22.408V5.984H20.408ZM21.408 10.264H9.44V12.264H21.408V10.264ZM8.44 11.264V14.304H10.44V11.264H8.44ZM9.44 15.304H19.68V13.304H9.44V15.304ZM18.68 14.304V19.36H20.68V14.304H18.68ZM19.68 18.36H9.44V20.36H19.68V18.36ZM8.44 19.36V22.72H10.44V19.36H8.44ZM9.44 23.72H21.632V21.72H9.44V23.72ZM20.632 22.72V28H22.632V22.72H20.632ZM21.632 27H2.368V29H21.632V27ZM3.368 28V5.984H1.368V28H3.368ZM34.9977 13.504L34.1657 14.0587L35.458 15.9972L35.973 13.7251L34.9977 13.504ZM35.5418 11.104V10.104H34.743L34.5665 10.8829L35.5418 11.104ZM40.7257 11.104H41.7257V10.104H40.7257V11.104ZM40.7257 34.304V35.304H41.7257V34.304H40.7257ZM34.3577 34.304H33.3577V35.304H34.3577V34.304ZM34.3577 26.464H35.3577V23.927L33.6267 25.7817L34.3577 26.464ZM24.3417 26.176L23.5717 26.814L23.5763 26.8195L24.3417 26.176ZM24.3417 12.96L23.5717 12.322L24.3417 12.96ZM33.7178 22.688L34.5333 23.2667L34.5376 23.2607L34.5418 23.2545L33.7178 22.688ZM33.7178 16.416L34.5333 15.8373V15.8373L33.7178 16.416ZM29.6217 11.72C31.6548 11.72 33.1251 12.4978 34.1657 14.0587L35.8298 12.9493C34.3958 10.7982 32.282 9.72 29.6217 9.72V11.72ZM35.973 13.7251L36.517 11.3251L34.5665 10.8829L34.0225 13.2829L35.973 13.7251ZM35.5418 12.104H40.7257V10.104H35.5418V12.104ZM39.7257 11.104V34.304H41.7257V11.104H39.7257ZM40.7257 33.304H34.3577V35.304H40.7257V33.304ZM35.3577 34.304V26.464H33.3577V34.304H35.3577ZM33.6267 25.7817C32.645 26.8335 31.3443 27.384 29.6217 27.384V29.384C31.8246 29.384 33.6811 28.6545 35.0888 27.1463L33.6267 25.7817ZM29.6217 27.384C27.5733 27.384 26.1185 26.7356 25.1072 25.5325L23.5763 26.8195C25.0397 28.5604 27.1048 29.384 29.6217 29.384V27.384ZM25.1118 25.538C24.0813 24.2943 23.4858 22.3637 23.4858 19.584H21.4858C21.4858 22.607 22.1276 25.0711 23.5717 26.814L25.1118 25.538ZM23.4858 19.584C23.4858 16.7808 24.0822 14.8406 25.1118 13.598L23.5717 12.322C22.1266 14.066 21.4858 16.5418 21.4858 19.584H23.4858ZM25.1118 13.598C26.1247 12.3755 27.5783 11.72 29.6217 11.72V9.72C27.0999 9.72 25.0335 10.5578 23.5717 12.322L25.1118 13.598ZM31.6058 14.424C30.4853 14.424 29.478 14.7643 28.7772 15.5954C28.1041 16.3938 27.8538 17.4835 27.8538 18.688H29.8538C29.8538 17.7165 30.0621 17.1742 30.3063 16.8846C30.5229 16.6277 30.8915 16.424 31.6058 16.424V14.424ZM27.8538 18.688V20.384H29.8538V18.688H27.8538ZM27.8538 20.384C27.8538 21.5973 28.1033 22.6934 28.7741 23.4969C29.4739 24.335 30.4821 24.68 31.6058 24.68V22.68C30.8947 22.68 30.527 22.4757 30.3094 22.2151C30.0629 21.9199 29.8538 21.3681 29.8538 20.384H27.8538ZM31.6058 24.68C32.8098 24.68 33.8449 24.2368 34.5333 23.2667L32.9022 22.1093C32.652 22.4619 32.279 22.68 31.6058 22.68V24.68ZM34.5418 23.2545C35.1547 22.3631 35.4217 21.2751 35.4217 20.064H33.4217C33.4217 20.9863 33.2195 21.6476 32.8937 22.1215L34.5418 23.2545ZM35.4217 20.064V19.008H33.4217V20.064H35.4217ZM35.4217 19.008C35.4217 17.7988 35.1553 16.7138 34.5333 15.8373L32.9022 16.9947C33.2188 17.4408 33.4217 18.0839 33.4217 19.008H35.4217ZM34.5333 15.8373C33.8449 14.8672 32.8098 14.424 31.6058 14.424V16.424C32.279 16.424 32.652 16.6421 32.9022 16.9947L34.5333 15.8373ZM55.0935 28L54.1064 28.1604L54.2429 29H55.0935V28ZM54.6775 25.44L55.6646 25.2796L55.2775 22.8978L53.8663 24.8552L54.6775 25.44ZM52.0535 27.616L52.4862 28.5176L52.4937 28.5139L52.0535 27.616ZM44.2455 26.752L43.5029 27.4218L44.2455 26.752ZM42.7735 11.104V10.104H41.7735V11.104H42.7735ZM49.1415 11.104H50.1415V10.104H49.1415V11.104ZM49.6855 23.04L48.9083 23.6692L48.9247 23.6895L48.9422 23.709L49.6855 23.04ZM53.2055 22.912L52.4835 22.2201H52.4835L53.2055 22.912ZM53.9415 11.104V10.104H52.9415V11.104H53.9415ZM60.3095 11.104H61.3095V10.104H60.3095V11.104ZM60.3095 28V29H61.3095V28H60.3095ZM56.0806 27.8396L55.6646 25.2796L53.6904 25.6004L54.1064 28.1604L56.0806 27.8396ZM53.8663 24.8552C53.3079 25.6298 52.5647 26.2517 51.6133 26.7181L52.4937 28.5139C53.7183 27.9136 54.7244 27.0849 55.4887 26.0248L53.8663 24.8552ZM51.6208 26.7145C50.6905 27.161 49.7079 27.384 48.6615 27.384V29.384C50.0045 29.384 51.2832 29.095 52.4862 28.5175L51.6208 26.7145ZM48.6615 27.384C46.8811 27.384 45.7214 26.8953 44.9881 26.0822L43.5029 27.4218C44.7323 28.7847 46.5165 29.384 48.6615 29.384V27.384ZM44.9881 26.0822C44.2283 25.2399 43.7735 23.947 43.7735 22.048H41.7735C41.7735 24.245 42.3001 26.0881 43.5029 27.4218L44.9881 26.0822ZM43.7735 22.048V11.104H41.7735V22.048H43.7735ZM42.7735 12.104H49.1415V10.104H42.7735V12.104ZM48.1415 11.104V21.28H50.1415V11.104H48.1415ZM48.1415 21.28C48.1415 22.1739 48.3675 23.0012 48.9083 23.6692L50.4627 22.4108C50.2782 22.1828 50.1415 21.8368 50.1415 21.28H48.1415ZM48.9422 23.709C49.5518 24.3863 50.3779 24.68 51.2855 24.68V22.68C50.8277 22.68 50.5872 22.5471 50.4288 22.371L48.9422 23.709ZM51.2855 24.68C52.3135 24.68 53.2259 24.336 53.9275 23.6039L52.4835 22.2201C52.2037 22.512 51.8362 22.68 51.2855 22.68V24.68ZM53.9275 23.6039C54.6067 22.8951 54.9415 22.0135 54.9415 21.024H52.9415C52.9415 21.5279 52.7856 21.9049 52.4835 22.2201L53.9275 23.6039ZM54.9415 21.024V11.104H52.9415V21.024H54.9415ZM53.9415 12.104H60.3095V10.104H53.9415V12.104ZM59.3095 11.104V28H61.3095V11.104H59.3095ZM60.3095 27H55.0935V29H60.3095V27ZM62.6453 9.12H61.6453V10.12H62.6453V9.12ZM62.6453 4.8V3.8H61.6453V4.8H62.6453ZM69.0133 4.8H70.0133V3.8H69.0133V4.8ZM69.0133 9.12V10.12H70.0133V9.12H69.0133ZM62.6453 28H61.6453V29H62.6453V28ZM62.6453 11.104V10.104H61.6453V11.104H62.6453ZM69.0133 11.104H70.0133V10.104H69.0133V11.104ZM69.0133 28V29H70.0133V28H69.0133ZM63.6453 9.12V4.8H61.6453V9.12H63.6453ZM62.6453 5.8H69.0133V3.8H62.6453V5.8ZM68.0133 4.8V9.12H70.0133V4.8H68.0133ZM69.0133 8.12H62.6453V10.12H69.0133V8.12ZM63.6453 28V11.104H61.6453V28H63.6453ZM62.6453 12.104H69.0133V10.104H62.6453V12.104ZM68.0133 11.104V28H70.0133V11.104H68.0133ZM69.0133 27H62.6453V29H69.0133V27ZM87.7335 12.96L86.9635 13.598L87.7335 12.96ZM87.7335 26.176L88.499 26.8195L88.5035 26.814L87.7335 26.176ZM77.7175 26.464L78.4486 25.7817L76.7175 23.927V26.464H77.7175ZM77.7175 34.304V35.304H78.7175V34.304H77.7175ZM71.3495 34.304H70.3495V35.304H71.3495V34.304ZM71.3495 11.104V10.104H70.3495V11.104H71.3495ZM76.5335 11.104L77.5088 10.8829L77.3322 10.104H76.5335V11.104ZM77.0775 13.504L76.1022 13.7251L76.6172 15.9972L77.9096 14.0587L77.0775 13.504ZM78.3575 16.416L77.542 15.8373V15.8373L78.3575 16.416ZM78.3575 22.688L77.5335 23.2545L77.5377 23.2607L77.542 23.2667L78.3575 22.688ZM82.4535 11.72C84.497 11.72 85.9506 12.3755 86.9635 13.598L88.5035 12.322C87.0418 10.5578 84.9754 9.72 82.4535 9.72V11.72ZM86.9635 13.598C87.9931 14.8406 88.5895 16.7808 88.5895 19.584H90.5895C90.5895 16.5418 89.9486 14.066 88.5035 12.322L86.9635 13.598ZM88.5895 19.584C88.5895 22.3637 87.994 24.2943 86.9635 25.538L88.5035 26.814C89.9477 25.0711 90.5895 22.607 90.5895 19.584H88.5895ZM86.968 25.5325C85.9567 26.7356 84.5019 27.384 82.4535 27.384V29.384C84.9704 29.384 87.0356 28.5604 88.499 26.8195L86.968 25.5325ZM82.4535 27.384C80.731 27.384 79.4302 26.8335 78.4486 25.7817L76.9864 27.1463C78.3941 28.6545 80.2507 29.384 82.4535 29.384V27.384ZM76.7175 26.464V34.304H78.7175V26.464H76.7175ZM77.7175 33.304H71.3495V35.304H77.7175V33.304ZM72.3495 34.304V11.104H70.3495V34.304H72.3495ZM71.3495 12.104H76.5335V10.104H71.3495V12.104ZM75.5582 11.3251L76.1022 13.7251L78.0528 13.2829L77.5088 10.8829L75.5582 11.3251ZM77.9096 14.0587C78.9502 12.4978 80.4204 11.72 82.4535 11.72V9.72C79.7933 9.72 77.6795 10.7982 76.2454 12.9493L77.9096 14.0587ZM80.4695 14.424C79.2654 14.424 78.2304 14.8672 77.542 15.8373L79.173 16.9947C79.4233 16.6421 79.7962 16.424 80.4695 16.424V14.424ZM77.542 15.8373C76.9199 16.7138 76.6535 17.7988 76.6535 19.008H78.6535C78.6535 18.0839 78.8564 17.4408 79.173 16.9947L77.542 15.8373ZM76.6535 19.008V20.064H78.6535V19.008H76.6535ZM76.6535 20.064C76.6535 21.2751 76.9206 22.3631 77.5335 23.2545L79.1815 22.1215C78.8557 21.6476 78.6535 20.9863 78.6535 20.064H76.6535ZM77.542 23.2667C78.2304 24.2368 79.2654 24.68 80.4695 24.68V22.68C79.7962 22.68 79.4233 22.4619 79.173 22.1093L77.542 23.2667ZM80.4695 24.68C81.5931 24.68 82.6014 24.335 83.3011 23.4969C83.972 22.6934 84.2215 21.5973 84.2215 20.384H82.2215C82.2215 21.3681 82.0123 21.9199 81.7659 22.2151C81.5483 22.4757 81.1805 22.68 80.4695 22.68V24.68ZM84.2215 20.384V18.688H82.2215V20.384H84.2215ZM84.2215 18.688C84.2215 17.4835 83.9712 16.3938 83.298 15.5954C82.5973 14.7643 81.59 14.424 80.4695 14.424V16.424C81.1837 16.424 81.5524 16.6277 81.769 16.8846C82.0131 17.1742 82.2215 17.7165 82.2215 18.688H84.2215ZM106.709 12.896L106.042 13.6413L106.047 13.6456L106.709 12.896ZM109.173 20.64V21.64H110.173V20.64H109.173ZM96.5013 20.64V19.64H95.5013V20.64H96.5013ZM97.3012 23.392L96.5438 24.0449L96.5502 24.0523L96.5567 24.0595L97.3012 23.392ZM102.229 23.648L101.571 22.8954L101.563 22.9024L101.555 22.9095L102.229 23.648ZM102.997 21.856V20.856H101.997V21.856H102.997ZM109.173 21.856H110.173V20.856H109.173V21.856ZM106.837 26.656L106.243 25.8521L106.837 26.656ZM92.7253 26.208L92.0768 26.9693L92.0823 26.9739L92.7253 26.208ZM92.6612 12.96L91.9981 12.2115L92.6612 12.96ZM96.5332 17.632L95.5408 17.5093L95.402 18.632H96.5332V17.632ZM102.741 17.632V18.632H103.741V17.632H102.741ZM101.973 15.552L101.251 16.2439L101.259 16.2516L101.266 16.2591L101.973 15.552ZM99.6372 11.72C102.588 11.72 104.669 12.4123 106.042 13.6412L107.376 12.1508C105.507 10.4783 102.874 9.72 99.6372 9.72V11.72ZM106.047 13.6456C107.405 14.8446 108.173 16.7433 108.173 19.552H110.173C110.173 16.3874 109.299 13.8487 107.371 12.1464L106.047 13.6456ZM108.173 19.552V20.64H110.173V19.552H108.173ZM109.173 19.64H96.5013V21.64H109.173V19.64ZM95.5013 20.64C95.5013 21.982 95.7931 23.174 96.5438 24.0449L98.0587 22.7391C97.7428 22.3726 97.5013 21.73 97.5013 20.64H95.5013ZM96.5567 24.0595C97.3689 24.9654 98.5563 25.32 99.8932 25.32V23.32C98.8835 23.32 98.343 23.0559 98.0458 22.7245L96.5567 24.0595ZM99.8932 25.32C101.066 25.32 102.145 25.0792 102.904 24.3865L101.555 22.9095C101.332 23.1128 100.854 23.32 99.8932 23.32V25.32ZM102.888 24.4006C103.639 23.7428 103.997 22.8594 103.997 21.856H101.997C101.997 22.3459 101.843 22.6572 101.571 22.8954L102.888 24.4006ZM102.997 22.856H109.173V20.856H102.997V22.856ZM108.173 21.856C108.173 23.6082 107.528 24.9009 106.243 25.8521L107.432 27.4599C109.261 26.1071 110.173 24.1998 110.173 21.856H108.173ZM106.243 25.8521C104.928 26.8244 102.903 27.384 100.021 27.384V29.384C103.113 29.384 105.632 28.7916 107.432 27.4599L106.243 25.8521ZM100.021 27.384C97.0294 27.384 94.8569 26.6919 93.3682 25.4421L92.0823 26.9739C94.0496 28.6255 96.7411 29.384 100.021 29.384V27.384ZM93.3737 25.4468C91.9327 24.2192 91.1332 22.3202 91.1332 19.552H89.1332C89.1332 22.7145 90.0618 25.2528 92.0768 26.9692L93.3737 25.4468ZM91.1332 19.552C91.1332 16.8488 91.9114 14.9605 93.3244 13.7085L91.9981 12.2115C90.0405 13.9461 89.1332 16.4525 89.1332 19.552H91.1332ZM93.3244 13.7085C94.7753 12.4228 96.8374 11.72 99.6372 11.72V9.72C96.5065 9.72 93.9178 10.5105 91.9981 12.2115L93.3244 13.7085ZM99.8932 13.784C98.7404 13.784 97.6999 14.0574 96.9027 14.7332C96.0987 15.4146 95.6793 16.3885 95.5408 17.5093L97.5257 17.7547C97.6218 16.9769 97.8798 16.5267 98.1958 16.2588C98.5186 15.9853 99.0408 15.784 99.8932 15.784V13.784ZM96.5332 18.632H102.741V16.632H96.5332V18.632ZM103.741 17.632C103.741 16.551 103.418 15.5823 102.68 14.8449L101.266 16.2591C101.553 16.5457 101.741 16.9636 101.741 17.632H103.741ZM102.695 14.8601C101.969 14.1024 100.986 13.784 99.8932 13.784V15.784C100.593 15.784 100.996 15.9776 101.251 16.2439L102.695 14.8601ZM109.813 21.728H108.813V22.728H109.813V21.728ZM109.813 16.672V15.672H108.813V16.672H109.813ZM117.973 16.672H118.973V15.672H117.973V16.672ZM117.973 21.728V22.728H118.973V21.728H117.973ZM110.813 21.728V16.672H108.813V21.728H110.813ZM109.813 17.672H117.973V15.672H109.813V17.672ZM116.973 16.672V21.728H118.973V16.672H116.973ZM117.973 20.728H109.813V22.728H117.973V20.728ZM135.573 28L134.817 28.6543L135.116 29H135.573V28ZM126.325 17.312L127.081 16.6577L125.325 14.628V17.312H126.325ZM126.325 28V29H127.325V28H126.325ZM119.829 28H118.829V29H119.829V28ZM119.829 5.984V4.984H118.829V5.984H119.829ZM126.005 5.984L126.766 5.33524L126.467 4.984H126.005V5.984ZM135.253 16.832L134.492 17.4808L136.253 19.5464V16.832H135.253ZM135.253 5.984V4.984H134.253V5.984H135.253ZM141.749 5.984H142.749V4.984H141.749V5.984ZM141.749 28V29H142.749V28H141.749ZM136.329 27.3457L127.081 16.6577L125.569 17.9663L134.817 28.6543L136.329 27.3457ZM125.325 17.312V28H127.325V17.312H125.325ZM126.325 27H119.829V29H126.325V27ZM120.829 28V5.984H118.829V28H120.829ZM119.829 6.984H126.005V4.984H119.829V6.984ZM125.244 6.63275L134.492 17.4808L136.014 16.1832L126.766 5.33524L125.244 6.63275ZM136.253 16.832V5.984H134.253V16.832H136.253ZM135.253 6.984H141.749V4.984H135.253V6.984ZM140.749 5.984V28H142.749V5.984H140.749ZM141.749 27H135.573V29H141.749V27ZM160.085 12.896L159.419 13.6413L159.424 13.6456L160.085 12.896ZM162.549 20.64V21.64H163.549V20.64H162.549ZM149.878 20.64V19.64H148.878V20.64H149.878ZM150.678 23.392L149.92 24.0449L149.926 24.0523L149.933 24.0595L150.678 23.392ZM155.605 23.648L154.947 22.8954L154.939 22.9024L154.931 22.9095L155.605 23.648ZM156.374 21.856V20.856H155.374V21.856H156.374ZM162.549 21.856H163.549V20.856H162.549V21.856ZM160.214 26.656L159.619 25.8521L160.214 26.656ZM146.102 26.208L145.453 26.9693L145.459 26.9739L146.102 26.208ZM146.037 12.96L145.374 12.2115L146.037 12.96ZM149.91 17.632L148.917 17.5093L148.778 18.632H149.91V17.632ZM156.117 17.632V18.632H157.117V17.632H156.117ZM155.35 15.552L154.628 16.2439L154.635 16.2516L154.642 16.2591L155.35 15.552ZM153.014 11.72C155.964 11.72 158.045 12.4123 159.419 13.6412L160.752 12.1508C158.883 10.4783 156.25 9.72 153.014 9.72V11.72ZM159.424 13.6456C160.781 14.8446 161.549 16.7433 161.549 19.552H163.549C163.549 16.3874 162.675 13.8487 160.747 12.1464L159.424 13.6456ZM161.549 19.552V20.64H163.549V19.552H161.549ZM162.549 19.64H149.878V21.64H162.549V19.64ZM148.878 20.64C148.878 21.982 149.169 23.174 149.92 24.0449L151.435 22.7391C151.119 22.3726 150.878 21.73 150.878 20.64H148.878ZM149.933 24.0595C150.745 24.9654 151.933 25.32 153.27 25.32V23.32C152.26 23.32 151.719 23.0559 151.422 22.7245L149.933 24.0595ZM153.27 25.32C154.442 25.32 155.521 25.0792 156.28 24.3865L154.931 22.9095C154.709 23.1128 154.23 23.32 153.27 23.32V25.32ZM156.264 24.4006C157.016 23.7428 157.374 22.8594 157.374 21.856H155.374C155.374 22.3459 155.219 22.6572 154.947 22.8954L156.264 24.4006ZM156.374 22.856H162.549V20.856H156.374V22.856ZM161.549 21.856C161.549 23.6082 160.905 24.9009 159.619 25.8521L160.808 27.4599C162.637 26.1071 163.549 24.1998 163.549 21.856H161.549ZM159.619 25.8521C158.304 26.8244 156.279 27.384 153.397 27.384V29.384C156.489 29.384 159.008 28.7916 160.808 27.4599L159.619 25.8521ZM153.397 27.384C150.406 27.384 148.233 26.6919 146.744 25.4421L145.459 26.9739C147.426 28.6255 150.117 29.384 153.397 29.384V27.384ZM146.75 25.4468C145.309 24.2192 144.509 22.3202 144.509 19.552H142.509C142.509 22.7145 143.438 25.2528 145.453 26.9692L146.75 25.4468ZM144.509 19.552C144.509 16.8488 145.288 14.9605 146.701 13.7085L145.374 12.2115C143.417 13.9461 142.509 16.4525 142.509 19.552H144.509ZM146.701 13.7085C148.152 12.4228 150.214 11.72 153.014 11.72V9.72C149.883 9.72 147.294 10.5105 145.374 12.2115L146.701 13.7085ZM153.27 13.784C152.117 13.784 151.076 14.0574 150.279 14.7332C149.475 15.4146 149.056 16.3885 148.917 17.5093L150.902 17.7547C150.998 16.9769 151.256 16.5267 151.572 16.2588C151.895 15.9853 152.417 15.784 153.27 15.784V13.784ZM149.91 18.632H156.117V16.632H149.91V18.632ZM157.117 17.632C157.117 16.551 156.794 15.5823 156.057 14.8449L154.642 16.2591C154.929 16.5457 155.117 16.9636 155.117 17.632H157.117ZM156.071 14.8601C155.345 14.1024 154.362 13.784 153.27 13.784V15.784C153.969 15.784 154.372 15.9776 154.628 16.2439L156.071 14.8601ZM182.282 28V29H184.234L183.093 27.4157L182.282 28ZM174.857 28L174.001 28.516L174.292 29H174.857V28ZM171.658 22.688L172.514 22.172L172.223 21.688H171.658V22.688ZM171.53 22.688V21.688H170.967L170.675 22.1682L171.53 22.688ZM168.298 28V29H168.86L169.152 28.5198L168.298 28ZM161.226 28L160.416 27.413L159.265 29H161.226V28ZM167.721 19.04L168.531 19.627L168.96 19.0348L168.526 18.4462L167.721 19.04ZM161.866 11.104V10.104H159.885L161.061 11.6978L161.866 11.104ZM169.354 11.104L170.211 10.5895L169.92 10.104H169.354V11.104ZM172.042 15.584L171.184 16.0985L171.475 16.584H172.042V15.584ZM172.17 15.584V16.584H172.736L173.027 16.0985L172.17 15.584ZM174.857 11.104V10.104H174.291L174 10.5895L174.857 11.104ZM181.898 11.104L182.703 11.6963L183.874 10.104H181.898V11.104ZM175.946 19.2L175.14 18.6077L174.709 19.1939L175.134 19.7843L175.946 19.2ZM182.282 27H174.857V29H182.282V27ZM175.714 27.484L172.514 22.172L170.801 23.204L174.001 28.516L175.714 27.484ZM171.658 21.688H171.53V23.688H171.658V21.688ZM170.675 22.1682L167.443 27.4802L169.152 28.5198L172.384 23.2078L170.675 22.1682ZM168.298 27H161.226V29H168.298V27ZM162.035 28.587L168.531 19.627L166.912 18.453L160.416 27.413L162.035 28.587ZM168.526 18.4462L162.67 10.5102L161.061 11.6978L166.917 19.6338L168.526 18.4462ZM161.866 12.104H169.354V10.104H161.866V12.104ZM168.496 11.6185L171.184 16.0985L172.899 15.0695L170.211 10.5895L168.496 11.6185ZM172.042 16.584H172.17V14.584H172.042V16.584ZM173.027 16.0985L175.715 11.6185L174 10.5895L171.312 15.0695L173.027 16.0985ZM174.857 12.104H181.898V10.104H174.857V12.104ZM181.092 10.5117L175.14 18.6077L176.751 19.7923L182.703 11.6963L181.092 10.5117ZM175.134 19.7843L181.47 28.5843L183.093 27.4157L176.757 18.6157L175.134 19.7843ZM194.857 28L193.87 28.1604L194.007 29H194.857V28ZM194.441 25.44L195.428 25.2796L195.041 22.8978L193.63 24.8552L194.441 25.44ZM191.817 27.616L192.25 28.5176L192.257 28.5139L191.817 27.616ZM184.009 26.752L183.267 27.4218L184.009 26.752ZM182.537 11.104V10.104H181.537V11.104H182.537ZM188.905 11.104H189.905V10.104H188.905V11.104ZM189.449 23.04L188.672 23.6692L188.688 23.6895L188.706 23.709L189.449 23.04ZM192.969 22.912L192.247 22.2201L192.969 22.912ZM193.705 11.104V10.104H192.705V11.104H193.705ZM200.073 11.104H201.073V10.104H200.073V11.104ZM200.073 28V29H201.073V28H200.073ZM195.844 27.8396L195.428 25.2796L193.454 25.6004L193.87 28.1604L195.844 27.8396ZM193.63 24.8552C193.072 25.6298 192.328 26.2517 191.377 26.7181L192.257 28.5139C193.482 27.9136 194.488 27.0849 195.252 26.0248L193.63 24.8552ZM191.385 26.7145C190.454 27.161 189.472 27.384 188.425 27.384V29.384C189.768 29.384 191.047 29.095 192.25 28.5175L191.385 26.7145ZM188.425 27.384C186.645 27.384 185.485 26.8953 184.752 26.0822L183.267 27.4218C184.496 28.7847 186.28 29.384 188.425 29.384V27.384ZM184.752 26.0822C183.992 25.2399 183.537 23.947 183.537 22.048H181.537C181.537 24.245 182.064 26.0881 183.267 27.4218L184.752 26.0822ZM183.537 22.048V11.104H181.537V22.048H183.537ZM182.537 12.104H188.905V10.104H182.537V12.104ZM187.905 11.104V21.28H189.905V11.104H187.905ZM187.905 21.28C187.905 22.1739 188.131 23.0012 188.672 23.6692L190.226 22.4108C190.042 22.1828 189.905 21.8368 189.905 21.28H187.905ZM188.706 23.709C189.316 24.3863 190.142 24.68 191.049 24.68V22.68C190.591 22.68 190.351 22.5471 190.193 22.371L188.706 23.709ZM191.049 24.68C192.077 24.68 192.99 24.336 193.691 23.6039L192.247 22.2201C191.967 22.512 191.6 22.68 191.049 22.68V24.68ZM193.691 23.6039C194.37 22.8951 194.705 22.0135 194.705 21.024H192.705C192.705 21.5279 192.549 21.9049 192.247 22.2201L193.691 23.6039ZM194.705 21.024V11.104H192.705V21.024H194.705ZM193.705 12.104H200.073V10.104H193.705V12.104ZM199.073 11.104V28H201.073V11.104H199.073ZM200.073 27H194.857V29H200.073V27ZM215.945 12.064L215.446 12.9308L215.453 12.9348L215.46 12.9387L215.945 12.064ZM218.313 16.16V17.16H219.313V16.16H218.313ZM212.393 16.16H211.393V17.16H212.393V16.16ZM211.561 14.848L211.075 15.7222L211.108 15.7403L211.142 15.756L211.561 14.848ZM208.617 16.48L208.312 17.4324V17.4324L208.617 16.48ZM211.241 17.024L211.085 18.0118L211.092 18.0129L211.1 18.0139L211.241 17.024ZM214.985 17.792L214.7 18.7504L214.709 18.7532L214.718 18.7558L214.985 17.792ZM217.609 19.328L216.902 20.0351L216.907 20.0402L216.912 20.0453L217.609 19.328ZM216.297 27.008L215.805 26.1376L215.8 26.1405L216.297 27.008ZM205.769 27.776L205.462 28.7277L205.469 28.73L205.476 28.7321L205.769 27.776ZM202.537 25.824L201.812 26.5132L202.537 25.824ZM201.289 22.496V21.496H200.289V22.496H201.289ZM207.209 22.496H208.209V21.496H207.209V22.496ZM207.209 22.624H206.209V22.6387L206.209 22.6534L207.209 22.624ZM208.105 24.16L207.645 25.0478L207.664 25.0578L207.684 25.067L208.105 24.16ZM211.817 22.4L212.144 21.455L211.817 22.4ZM209.097 21.792L209.264 20.8061L209.264 20.806L209.097 21.792ZM205.353 20.96L205.056 21.9149L205.062 21.9167L205.353 20.96ZM202.825 19.456L202.118 20.1631L202.123 20.1684L202.129 20.1736L202.825 19.456ZM204.073 12.032L203.588 11.1573L203.583 11.1601L204.073 12.032ZM210.217 11.72C212.348 11.72 214.075 12.1419 215.446 12.9308L216.444 11.1972C214.7 10.1941 212.609 9.72 210.217 9.72V11.72ZM215.46 12.9387C216.114 13.3011 216.564 13.7404 216.855 14.2445C217.148 14.75 217.313 15.3764 217.313 16.16H219.313C219.313 15.0876 219.084 14.1033 218.587 13.2435C218.089 12.3823 217.354 11.7016 216.43 11.1893L215.46 12.9387ZM218.313 15.16H212.393V17.16H218.313V15.16ZM213.393 16.16C213.393 15.6983 213.288 15.2401 213.03 14.8325C212.77 14.424 212.4 14.1339 211.98 13.94L211.142 15.756C211.277 15.8181 211.322 15.8747 211.34 15.9035C211.359 15.9332 211.393 16.003 211.393 16.16H213.393ZM212.047 13.9738C211.475 13.6562 210.816 13.528 210.121 13.528V15.528C210.578 15.528 210.879 15.6131 211.075 15.7222L212.047 13.9738ZM210.121 13.528C209.306 13.528 208.552 13.6192 207.966 13.8958C207.66 14.0402 207.363 14.2526 207.144 14.5633C206.918 14.8832 206.817 15.2475 206.817 15.616H208.817C208.817 15.6143 208.817 15.6276 208.81 15.6506C208.803 15.6743 208.792 15.6975 208.778 15.7167C208.751 15.7554 208.742 15.7411 208.82 15.7042C209.002 15.6181 209.4 15.528 210.121 15.528V13.528ZM206.817 15.616C206.817 16.0615 206.973 16.48 207.283 16.8154C207.573 17.1285 207.947 17.3157 208.312 17.4324L208.922 15.5276C208.842 15.502 208.792 15.4783 208.764 15.4625C208.737 15.4469 208.738 15.4426 208.751 15.4566C208.765 15.4724 208.786 15.5005 208.8 15.539C208.815 15.5769 208.817 15.6058 208.817 15.616H206.817ZM208.312 17.4324C208.924 17.6282 209.864 17.8189 211.085 18.0118L211.397 16.0362C210.186 15.8451 209.377 15.6732 208.922 15.5276L208.312 17.4324ZM211.1 18.0139C212.563 18.2231 213.76 18.4704 214.7 18.7504L215.27 16.8336C214.205 16.5163 212.905 16.2516 211.382 16.034L211.1 18.0139ZM214.718 18.7558C215.552 18.9864 216.275 19.4087 216.902 20.0351L218.316 18.6209C217.449 17.754 216.423 17.1523 215.252 16.8282L214.718 18.7558ZM216.912 20.0453C217.416 20.5346 217.729 21.2704 217.729 22.4H219.729C219.729 20.8843 219.295 19.5721 218.306 18.6107L216.912 20.0453ZM217.729 22.4C217.729 24.262 217.057 25.4288 215.805 26.1377L216.789 27.8783C218.779 26.7526 219.729 24.8474 219.729 22.4H217.729ZM215.8 26.1405C214.401 26.9425 212.489 27.384 209.993 27.384V29.384C212.702 29.384 214.993 28.9081 216.794 27.8755L215.8 26.1405ZM209.993 27.384C208.591 27.384 207.282 27.1939 206.062 26.8199L205.476 28.7321C206.901 29.1688 208.408 29.384 209.993 29.384V27.384ZM206.076 26.8243C204.888 26.4411 203.962 25.8713 203.262 25.1348L201.812 26.5132C202.776 27.5261 204.005 28.2576 205.462 28.7277L206.076 26.8243ZM203.262 25.1348C202.627 24.4677 202.289 23.615 202.289 22.496H200.289C200.289 24.065 200.783 25.431 201.812 26.5132L203.262 25.1348ZM201.289 23.496H207.209V21.496H201.289V23.496ZM206.209 22.496V22.624H208.209V22.496H206.209ZM206.209 22.6534C206.24 23.6893 206.703 24.5593 207.645 25.0478L208.565 23.2722C208.355 23.1634 208.221 23.0094 208.209 22.5946L206.209 22.6534ZM207.684 25.067C208.414 25.4059 209.187 25.576 209.993 25.576V23.576C209.477 23.576 208.991 23.4688 208.526 23.253L207.684 25.067ZM209.993 25.576C210.925 25.576 211.767 25.4715 212.41 25.1691C212.745 25.0117 213.064 24.7832 213.299 24.4526C213.54 24.1126 213.649 23.7242 213.649 23.328H211.649C211.649 23.3478 211.648 23.3234 211.667 23.2954C211.681 23.2768 211.668 23.3083 211.56 23.3589C211.318 23.4725 210.832 23.576 209.993 23.576V25.576ZM213.649 23.328C213.649 22.8756 213.494 22.452 213.186 22.1085C212.896 21.7859 212.519 21.5849 212.144 21.455L211.49 23.345C211.576 23.3747 211.631 23.4024 211.665 23.4225C211.698 23.4423 211.704 23.4515 211.696 23.4435C211.688 23.4339 211.673 23.413 211.661 23.3826C211.65 23.3527 211.649 23.3315 211.649 23.328H213.649ZM212.144 21.455C211.506 21.234 210.529 21.0205 209.264 20.8061L208.93 22.7779C210.182 22.9902 211.019 23.182 211.49 23.345L212.144 21.455ZM209.264 20.806C207.773 20.554 206.57 20.2851 205.644 20.0033L205.062 21.9167C206.099 22.2322 207.392 22.518 208.93 22.778L209.264 20.806ZM205.65 20.0051C204.841 19.7534 204.135 19.3337 203.521 18.7384L202.129 20.1736C202.966 20.9863 203.945 21.5693 205.056 21.9149L205.65 20.0051ZM203.532 18.7489C203.038 18.2551 202.737 17.5323 202.737 16.448H200.737C200.737 17.9237 201.161 19.2062 202.118 20.1631L203.532 18.7489ZM202.737 16.448C202.737 14.6714 203.376 13.5702 204.563 12.9039L203.583 11.1601C201.655 12.2431 200.737 14.0859 200.737 16.448H202.737ZM204.558 12.9067C205.941 12.1403 207.806 11.72 210.217 11.72V9.72C207.594 9.72 205.362 10.1744 203.588 11.1573L204.558 12.9067Z" fill="#666666" mask="url(#path-1-outside-1_5_853)"/>
<path d="M135.198 17.4507V6.29053" stroke="url(#paint0_linear_5_853)"/>
<path d="M136.777 17.4507V6.29053" stroke="url(#paint1_linear_5_853)"/>
<path d="M138.356 17.4507V6.29053" stroke="url(#paint2_linear_5_853)"/>
<path d="M139.62 17.4507V6.29053" stroke="url(#paint3_linear_5_853)"/>
<path d="M43.3652 22.5523V11.3921" stroke="url(#paint4_linear_5_853)"/>
<path d="M44.9443 22.5523V11.3921" stroke="url(#paint5_linear_5_853)"/>
<path d="M46.5239 22.5523V11.3921" stroke="url(#paint6_linear_5_853)"/>
<path d="M47.7871 22.5523V11.3921" stroke="url(#paint7_linear_5_853)"/>
<path d="M63.7725 27.973V11.3921" stroke="url(#paint8_linear_5_853)"/>
<path d="M65.3516 27.973V11.3921" stroke="url(#paint9_linear_5_853)"/>
<path d="M66.9312 27.973V11.3921" stroke="url(#paint10_linear_5_853)"/>
<path d="M68.1943 27.973V11.3921" stroke="url(#paint11_linear_5_853)"/>
<path d="M206.075 27.9731L201.521 22.8713" stroke="url(#paint12_linear_5_853)" stroke-linecap="round"/>
<path d="M207.41 27.9731L202.856 22.8713" stroke="url(#paint13_linear_5_853)" stroke-linecap="round"/>
<path d="M208.745 27.9731L204.191 22.8713" stroke="url(#paint14_linear_5_853)" stroke-linecap="round"/>
<path d="M209.812 27.9731L205.259 22.8713" stroke="url(#paint15_linear_5_853)" stroke-linecap="round"/>
<path d="M208.536 11.3923L213.162 15.752" stroke="url(#paint16_linear_5_853)" stroke-linecap="round"/>
<path d="M209.773 11.3923L214.398 15.752" stroke="url(#paint17_linear_5_853)" stroke-linecap="round"/>
<path d="M211.009 11.3923L215.635 15.752" stroke="url(#paint18_linear_5_853)" stroke-linecap="round"/>
<path d="M211.997 11.3923L216.623 15.752" stroke="url(#paint19_linear_5_853)" stroke-linecap="round"/>
<path d="M169.635 18.4073L175.656 27.7671" stroke="url(#paint20_linear_5_853)"/>
<path d="M171.214 18.4073L177.235 27.7671" stroke="url(#paint21_linear_5_853)"/>
<path d="M172.794 18.4073L178.814 27.7671" stroke="url(#paint22_linear_5_853)"/>
<path d="M72.1594 22.8713L72.063 34" stroke="url(#paint23_linear_5_853)"/>
<path d="M73.7389 22.8713L73.6426 34" stroke="url(#paint24_linear_5_853)"/>
<path d="M75.318 22.8713L75.2217 34" stroke="url(#paint25_linear_5_853)"/>
<path d="M169.677 20.4778L163.258 11.3921" stroke="url(#paint26_linear_5_853)"/>
<path d="M171.257 20.4778L164.837 11.3921" stroke="url(#paint27_linear_5_853)"/>
<g filter="url(#filter1_d_5_853)">
<path d="M172.836 20.4778L166.417 11.3921" stroke="url(#paint28_linear_5_853)" shape-rendering="crispEdges"/>
</g>
<path d="M174.099 20.4778L167.68 11.3921" stroke="url(#paint29_linear_5_853)"/>
<path d="M12.6543 9.41016L21.1802 9.44482" stroke="url(#paint30_linear_5_853)" stroke-linecap="round"/>
<path d="M12.2846 8.13477L20.8105 8.16943" stroke="url(#paint31_linear_5_853)" stroke-linecap="round"/>
<path d="M12.5522 6.85938L21.0781 6.89404" stroke="url(#paint32_linear_5_853)" stroke-linecap="round"/>
<path d="M12.5112 10.6858L21.0371 10.7205" stroke="url(#paint33_linear_5_853)" stroke-linecap="round"/>
<defs>
<filter id="filter0_i_5_853" x="2.36816" y="4.80005" width="220.361" height="31.5039" filterUnits="userSpaceOnUse" color-interpolation-filters="sRGB">
<feFlood flood-opacity="0" result="BackgroundImageFix"/>
<feBlend mode="normal" in="SourceGraphic" in2="BackgroundImageFix" result="shape"/>
<feColorMatrix in="SourceAlpha" type="matrix" values="0 0 0 0 0 0 0 0 0 0 0 0 0 0 0 0 0 0 127 0" result="hardAlpha"/>
<feOffset dx="4" dy="2"/>
<feGaussianBlur stdDeviation="2"/>
<feComposite in2="hardAlpha" operator="arithmetic" k2="-1" k3="1"/>
<feColorMatrix type="matrix" values="0 0 0 0 0 0 0 0 0 0 0 0 0 0 0 0 0 0 0.25 0"/>
<feBlend mode="normal" in2="shape" result="effect1_innerShadow_5_853"/>
</filter>
<filter id="filter1_d_5_853" x="162.011" y="11.0999" width="15.231" height="17.6702" filterUnits="userSpaceOnUse" color-interpolation-filters="sRGB">
<feFlood flood-opacity="0" result="BackgroundImageFix"/>
<feColorMatrix in="SourceAlpha" type="matrix" values="0 0 0 0 0 0 0 0 0 0 0 0 0 0 0 0 0 0 127 0" result="hardAlpha"/>
<feOffset dy="4"/>
<feGaussianBlur stdDeviation="2"/>
<feComposite in2="hardAlpha" operator="out"/>
<feColorMatrix type="matrix" values="0 0 0 0 0 0 0 0 0 0 0 0 0 0 0 0 0 0 0.25 0"/>
<feBlend mode="normal" in2="BackgroundImageFix" result="effect1_dropShadow_5_853"/>
<feBlend mode="normal" in="SourceGraphic" in2="effect1_dropShadow_5_853" result="shape"/>
</filter>
<linearGradient id="paint0_linear_5_853" x1="135.698" y1="6.29053" x2="135.698" y2="17.4507" gradientUnits="userSpaceOnUse">
<stop stop-color="white"/>
<stop offset="0.9999" stop-color="#D5D5D5" stop-opacity="0.0729167"/>
<stop offset="1" stop-color="#D1D1D1" stop-opacity="0"/>
</linearGradient>
<linearGradient id="paint1_linear_5_853" x1="137.277" y1="6.29053" x2="137.277" y2="17.4507" gradientUnits="userSpaceOnUse">
<stop stop-color="white"/>
<stop offset="0.9999" stop-color="#D5D5D5" stop-opacity="0.0729167"/>
<stop offset="1" stop-color="#D1D1D1" stop-opacity="0"/>
</linearGradient>
<linearGradient id="paint2_linear_5_853" x1="138.856" y1="6.29053" x2="138.856" y2="17.4507" gradientUnits="userSpaceOnUse">
<stop stop-color="white"/>
<stop offset="0.9999" stop-color="#D5D5D5" stop-opacity="0.0729167"/>
<stop offset="1" stop-color="#D1D1D1" stop-opacity="0"/>
</linearGradient>
<linearGradient id="paint3_linear_5_853" x1="140.12" y1="6.29053" x2="140.12" y2="17.4507" gradientUnits="userSpaceOnUse">
<stop stop-color="white"/>
<stop offset="0.9999" stop-color="#D5D5D5" stop-opacity="0.0729167"/>
<stop offset="1" stop-color="#D1D1D1" stop-opacity="0"/>
</linearGradient>
<linearGradient id="paint4_linear_5_853" x1="43.8652" y1="11.3921" x2="43.8652" y2="22.5523" gradientUnits="userSpaceOnUse">
<stop stop-color="white"/>
<stop offset="0.9999" stop-color="#D5D5D5" stop-opacity="0.0729167"/>
<stop offset="1" stop-color="#D1D1D1" stop-opacity="0"/>
</linearGradient>
<linearGradient id="paint5_linear_5_853" x1="45.4443" y1="11.3921" x2="45.4443" y2="22.5523" gradientUnits="userSpaceOnUse">
<stop stop-color="white"/>
<stop offset="0.9999" stop-color="#D5D5D5" stop-opacity="0.0729167"/>
<stop offset="1" stop-color="#D1D1D1" stop-opacity="0"/>
</linearGradient>
<linearGradient id="paint6_linear_5_853" x1="47.0239" y1="11.3921" x2="47.0239" y2="22.5523" gradientUnits="userSpaceOnUse">
<stop stop-color="white"/>
<stop offset="0.9999" stop-color="#D5D5D5" stop-opacity="0.0729167"/>
<stop offset="1" stop-color="#D1D1D1" stop-opacity="0"/>
</linearGradient>
<linearGradient id="paint7_linear_5_853" x1="48.2871" y1="11.3921" x2="48.2871" y2="22.5523" gradientUnits="userSpaceOnUse">
<stop stop-color="white"/>
<stop offset="0.9999" stop-color="#D5D5D5" stop-opacity="0.0729167"/>
<stop offset="1" stop-color="#D1D1D1" stop-opacity="0"/>
</linearGradient>
<linearGradient id="paint8_linear_5_853" x1="64.2725" y1="11.3921" x2="64.2725" y2="27.973" gradientUnits="userSpaceOnUse">
<stop stop-color="white"/>
<stop offset="0.9999" stop-color="#D5D5D5" stop-opacity="0.0729167"/>
<stop offset="1" stop-color="#D1D1D1" stop-opacity="0"/>
</linearGradient>
<linearGradient id="paint9_linear_5_853" x1="65.8516" y1="11.3921" x2="65.8516" y2="27.973" gradientUnits="userSpaceOnUse">
<stop stop-color="white"/>
<stop offset="0.9999" stop-color="#D5D5D5" stop-opacity="0.0729167"/>
<stop offset="1" stop-color="#D1D1D1" stop-opacity="0"/>
</linearGradient>
<linearGradient id="paint10_linear_5_853" x1="67.4312" y1="11.3921" x2="67.4312" y2="27.973" gradientUnits="userSpaceOnUse">
<stop stop-color="white"/>
<stop offset="0.9999" stop-color="#D5D5D5" stop-opacity="0.0729167"/>
<stop offset="1" stop-color="#D1D1D1" stop-opacity="0"/>
</linearGradient>
<linearGradient id="paint11_linear_5_853" x1="68.6943" y1="11.3921" x2="68.6943" y2="27.973" gradientUnits="userSpaceOnUse">
<stop stop-color="white"/>
<stop offset="0.9999" stop-color="#D5D5D5" stop-opacity="0.0729167"/>
<stop offset="1" stop-color="#D1D1D1" stop-opacity="0"/>
</linearGradient>
<linearGradient id="paint12_linear_5_853" x1="202.001" y1="22.7312" x2="203.732" y2="28.6573" gradientUnits="userSpaceOnUse">
<stop stop-color="white"/>
<stop offset="0.9999" stop-color="#D5D5D5" stop-opacity="0.0729167"/>
<stop offset="1" stop-color="#D1D1D1" stop-opacity="0"/>
</linearGradient>
<linearGradient id="paint13_linear_5_853" x1="203.336" y1="22.7312" x2="205.067" y2="28.6573" gradientUnits="userSpaceOnUse">
<stop stop-color="white"/>
<stop offset="0.9999" stop-color="#D5D5D5" stop-opacity="0.0729167"/>
<stop offset="1" stop-color="#D1D1D1" stop-opacity="0"/>
</linearGradient>
<linearGradient id="paint14_linear_5_853" x1="204.671" y1="22.7312" x2="206.402" y2="28.6573" gradientUnits="userSpaceOnUse">
<stop stop-color="white"/>
<stop offset="0.9999" stop-color="#D5D5D5" stop-opacity="0.0729167"/>
<stop offset="1" stop-color="#D1D1D1" stop-opacity="0"/>
</linearGradient>
<linearGradient id="paint15_linear_5_853" x1="205.739" y1="22.7312" x2="207.469" y2="28.6573" gradientUnits="userSpaceOnUse">
<stop stop-color="white"/>
<stop offset="0.9999" stop-color="#D5D5D5" stop-opacity="0.0729167"/>
<stop offset="1" stop-color="#D1D1D1" stop-opacity="0"/>
</linearGradient>
<linearGradient id="paint16_linear_5_853" x1="212.693" y1="15.9237" x2="210.74" y2="10.5863" gradientUnits="userSpaceOnUse">
<stop stop-color="white"/>
<stop offset="0.9999" stop-color="#D5D5D5" stop-opacity="0.0729167"/>
<stop offset="1" stop-color="#D1D1D1" stop-opacity="0"/>
</linearGradient>
<linearGradient id="paint17_linear_5_853" x1="213.929" y1="15.9237" x2="211.976" y2="10.5863" gradientUnits="userSpaceOnUse">
<stop stop-color="white"/>
<stop offset="0.9999" stop-color="#D5D5D5" stop-opacity="0.0729167"/>
<stop offset="1" stop-color="#D1D1D1" stop-opacity="0"/>
</linearGradient>
<linearGradient id="paint18_linear_5_853" x1="215.165" y1="15.9237" x2="213.213" y2="10.5863" gradientUnits="userSpaceOnUse">
<stop stop-color="white"/>
<stop offset="0.9999" stop-color="#D5D5D5" stop-opacity="0.0729167"/>
<stop offset="1" stop-color="#D1D1D1" stop-opacity="0"/>
</linearGradient>
<linearGradient id="paint19_linear_5_853" x1="216.153" y1="15.9237" x2="214.201" y2="10.5863" gradientUnits="userSpaceOnUse">
<stop stop-color="white"/>
<stop offset="0.9999" stop-color="#D5D5D5" stop-opacity="0.0729167"/>
<stop offset="1" stop-color="#D1D1D1" stop-opacity="0"/>
</linearGradient>
<linearGradient id="paint20_linear_5_853" x1="175.238" y1="28.0412" x2="169.137" y2="18.7343" gradientUnits="userSpaceOnUse">
<stop stop-color="white"/>
<stop offset="0.9999" stop-color="#D5D5D5" stop-opacity="0.0729167"/>
<stop offset="1" stop-color="#D1D1D1" stop-opacity="0"/>
</linearGradient>
<linearGradient id="paint21_linear_5_853" x1="176.817" y1="28.0412" x2="170.716" y2="18.7343" gradientUnits="userSpaceOnUse">
<stop stop-color="white"/>
<stop offset="0.9999" stop-color="#D5D5D5" stop-opacity="0.0729167"/>
<stop offset="1" stop-color="#D1D1D1" stop-opacity="0"/>
</linearGradient>
<linearGradient id="paint22_linear_5_853" x1="178.396" y1="28.0412" x2="172.295" y2="18.7343" gradientUnits="userSpaceOnUse">
<stop stop-color="white"/>
<stop offset="0.9999" stop-color="#D5D5D5" stop-opacity="0.0729167"/>
<stop offset="1" stop-color="#D1D1D1" stop-opacity="0"/>
</linearGradient>
<linearGradient id="paint23_linear_5_853" x1="71.563" y1="34" x2="71.563" y2="22.8713" gradientUnits="userSpaceOnUse">
<stop stop-color="white"/>
<stop offset="0.9999" stop-color="#D5D5D5" stop-opacity="0.0729167"/>
<stop offset="1" stop-color="#D1D1D1" stop-opacity="0"/>
</linearGradient>
<linearGradient id="paint24_linear_5_853" x1="73.1426" y1="34" x2="73.1426" y2="22.8713" gradientUnits="userSpaceOnUse">
<stop stop-color="white"/>
<stop offset="0.9999" stop-color="#D5D5D5" stop-opacity="0.0729167"/>
<stop offset="1" stop-color="#D1D1D1" stop-opacity="0"/>
</linearGradient>
<linearGradient id="paint25_linear_5_853" x1="74.7217" y1="34" x2="74.7217" y2="22.8713" gradientUnits="userSpaceOnUse">
<stop stop-color="white"/>
<stop offset="0.9999" stop-color="#D5D5D5" stop-opacity="0.0729167"/>
<stop offset="1" stop-color="#D1D1D1" stop-opacity="0"/>
</linearGradient>
<linearGradient id="paint26_linear_5_853" x1="163.664" y1="11.0999" x2="170.164" y2="20.1274" gradientUnits="userSpaceOnUse">
<stop stop-color="white"/>
<stop offset="0.9999" stop-color="#D5D5D5" stop-opacity="0.0729167"/>
<stop offset="1" stop-color="#D1D1D1" stop-opacity="0"/>
</linearGradient>
<linearGradient id="paint27_linear_5_853" x1="165.243" y1="11.0999" x2="171.743" y2="20.1274" gradientUnits="userSpaceOnUse">
<stop stop-color="white"/>
<stop offset="0.9999" stop-color="#D5D5D5" stop-opacity="0.0729167"/>
<stop offset="1" stop-color="#D1D1D1" stop-opacity="0"/>
</linearGradient>
<linearGradient id="paint28_linear_5_853" x1="166.822" y1="11.0999" x2="173.323" y2="20.1274" gradientUnits="userSpaceOnUse">
<stop stop-color="white"/>
<stop offset="0.9999" stop-color="#D5D5D5" stop-opacity="0.0729167"/>
<stop offset="1" stop-color="#D1D1D1" stop-opacity="0"/>
</linearGradient>
<linearGradient id="paint29_linear_5_853" x1="168.085" y1="11.0999" x2="174.586" y2="20.1274" gradientUnits="userSpaceOnUse">
<stop stop-color="white"/>
<stop offset="0.9999" stop-color="#D5D5D5" stop-opacity="0.0729167"/>
<stop offset="1" stop-color="#D1D1D1" stop-opacity="0"/>
</linearGradient>
<linearGradient id="paint30_linear_5_853" x1="21.0092" y1="9.91467" x2="13.4695" y2="7.17044" gradientUnits="userSpaceOnUse">
<stop stop-color="white"/>
<stop offset="0.9999" stop-color="#D5D5D5" stop-opacity="0.0729167"/>
<stop offset="1" stop-color="#D1D1D1" stop-opacity="0"/>
</linearGradient>
<linearGradient id="paint31_linear_5_853" x1="20.6395" y1="8.63928" x2="13.0998" y2="5.89505" gradientUnits="userSpaceOnUse">
<stop stop-color="white"/>
<stop offset="0.9999" stop-color="#D5D5D5" stop-opacity="0.0729167"/>
<stop offset="1" stop-color="#D1D1D1" stop-opacity="0"/>
</linearGradient>
<linearGradient id="paint32_linear_5_853" x1="20.9071" y1="7.36389" x2="13.3674" y2="4.61966" gradientUnits="userSpaceOnUse">
<stop stop-color="white"/>
<stop offset="0.9999" stop-color="#D5D5D5" stop-opacity="0.0729167"/>
<stop offset="1" stop-color="#D1D1D1" stop-opacity="0"/>
</linearGradient>
<linearGradient id="paint33_linear_5_853" x1="20.8661" y1="11.1903" x2="13.3264" y2="8.44607" gradientUnits="userSpaceOnUse">
<stop stop-color="white"/>
<stop offset="0.9999" stop-color="#D5D5D5" stop-opacity="0.0729167"/>
<stop offset="1" stop-color="#D1D1D1" stop-opacity="0"/>
</linearGradient>
</defs>
</svg>
