<svg width="513" height="47" viewBox="0 0 513 47" fill="none" xmlns="http://www.w3.org/2000/svg">
<path d="M0.2 37V2.6H11.25V37H0.2ZM28.2336 10C31.7669 10 34.7503 10.7 37.1836 12.1C39.6503 13.4667 40.8836 15.6 40.8836 18.5H31.6336C31.6336 17.5333 31.2003 16.85 30.3336 16.45C29.7336 16.1167 28.9836 15.95 28.0836 15.95C25.6836 15.95 24.4836 16.5167 24.4836 17.65C24.4836 18.2833 24.9003 18.7333 25.7336 19C26.5669 19.2667 27.9336 19.55 29.8336 19.85C32.1669 20.1833 34.1169 20.5833 35.6836 21.05C37.2503 21.4833 38.6169 22.2833 39.7836 23.45C40.9503 24.5833 41.5336 26.1833 41.5336 28.25C41.5336 31.6167 40.2669 34.0167 37.7336 35.45C35.2336 36.8833 31.9503 37.6 27.8836 37.6C25.5503 37.6 23.3503 37.2833 21.2836 36.65C19.2169 35.9833 17.5336 34.9667 16.2336 33.6C14.9336 32.2333 14.2836 30.5 14.2836 28.4H23.5336V28.6C23.5669 29.7333 24.0336 30.5333 24.9336 31C25.8669 31.4333 26.8503 31.65 27.8836 31.65C30.6503 31.65 32.0336 31 32.0336 29.7C32.0336 29.0333 31.6003 28.55 30.7336 28.25C29.8669 27.95 28.4503 27.6333 26.4836 27.3C24.1169 26.9 22.1669 26.4667 20.6336 26C19.1336 25.5333 17.8169 24.75 16.6836 23.65C15.5503 22.5167 14.9836 20.95 14.9836 18.95C14.9836 15.7167 16.2003 13.4167 18.6336 12.05C21.1003 10.6833 24.3003 10 28.2336 10ZM56.05 10C59.5833 10 62.5667 10.7 65 12.1C67.4667 13.4667 68.7 15.6 68.7 18.5H59.45C59.45 17.5333 59.0167 16.85 58.15 16.45C57.55 16.1167 56.8 15.95 55.9 15.95C53.5 15.95 52.3 16.5167 52.3 17.65C52.3 18.2833 52.7167 18.7333 53.55 19C54.3833 19.2667 55.75 19.55 57.65 19.85C59.9833 20.1833 61.9333 20.5833 63.5 21.05C65.0667 21.4833 66.4333 22.2833 67.6 23.45C68.7667 24.5833 69.35 26.1833 69.35 28.25C69.35 31.6167 68.0833 34.0167 65.55 35.45C63.05 36.8833 59.7667 37.6 55.7 37.6C53.3667 37.6 51.1667 37.2833 49.1 36.65C47.0333 35.9833 45.35 34.9667 44.05 33.6C42.75 32.2333 42.1 30.5 42.1 28.4H51.35V28.6C51.3833 29.7333 51.85 30.5333 52.75 31C53.6833 31.4333 54.6667 31.65 55.7 31.65C58.4667 31.65 59.85 31 59.85 29.7C59.85 29.0333 59.4167 28.55 58.55 28.25C57.6833 27.95 56.2667 27.6333 54.3 27.3C51.9333 26.9 49.9833 26.4667 48.45 26C46.95 25.5333 45.6333 24.75 44.5 23.65C43.3667 22.5167 42.8 20.95 42.8 18.95C42.8 15.7167 44.0167 13.4167 46.45 12.05C48.9167 10.6833 52.1167 10 56.05 10ZM84.9664 10C89.5997 10 93.2331 11.1833 95.8664 13.55C98.5331 15.8833 99.8664 19.3 99.8664 23.8C99.8664 28.3 98.5331 31.7333 95.8664 34.1C93.2331 36.4333 89.5997 37.6 84.9664 37.6C80.3331 37.6 76.6997 36.4333 74.0664 34.1C71.4331 31.7667 70.1164 28.3333 70.1164 23.8C70.1164 19.2667 71.4331 15.8333 74.0664 13.5C76.6997 11.1667 80.3331 10 84.9664 10ZM84.9664 16.75C81.6997 16.75 80.0664 18.6333 80.0664 22.4V25.25C80.0664 28.9833 81.6997 30.85 84.9664 30.85C88.2664 30.85 89.9164 28.9833 89.9164 25.25V22.4C89.9164 18.6333 88.2664 16.75 84.9664 16.75ZM124.666 7.4L129.316 0.749999H138.916L139.016 0.949999L131.066 7.4H124.666ZM129.466 10C134.3 10 137.983 11.1333 140.516 13.4C143.083 15.6667 144.366 19.1333 144.366 23.8V25.5H124.566C124.566 27.4 124.983 28.8333 125.816 29.8C126.683 30.7667 128.033 31.25 129.866 31.25C131.533 31.25 132.75 30.9 133.516 30.2C134.316 29.5 134.716 28.5667 134.716 27.4H144.366C144.366 30.6 143.15 33.1 140.716 34.9C138.283 36.7 134.733 37.6 130.066 37.6C125.166 37.6 121.366 36.4667 118.666 34.2C115.966 31.9 114.616 28.4333 114.616 23.8C114.616 19.2667 115.933 15.8333 118.566 13.5C121.2 11.1667 124.833 10 129.466 10ZM129.866 16.35C126.733 16.35 124.983 17.8333 124.616 20.8H134.316C134.316 19.4333 133.916 18.35 133.116 17.55C132.35 16.75 131.266 16.35 129.866 16.35ZM161.016 2.6H190.766V10.85H172.066V15.6H188.066V23.5H172.066V28.75H191.116V37H161.016V2.6ZM203.6 10C207.267 10 210.067 11.45 212 14.35L212.85 10.6H220.95V46.85H211V34.6C209.134 36.6 206.667 37.6 203.6 37.6C200.034 37.6 197.284 36.45 195.35 34.15C193.417 31.8167 192.45 28.3833 192.45 23.85C192.45 19.2833 193.417 15.8333 195.35 13.5C197.284 11.1667 200.034 10 203.6 10ZM206.7 17.35C203.834 17.35 202.4 19.05 202.4 22.45V25.1C202.4 28.5333 203.834 30.25 206.7 30.25C208.167 30.25 209.267 29.7333 210 28.7C210.734 27.6333 211.1 26.2667 211.1 24.6V22.95C211.1 21.2833 210.734 19.9333 210 18.9C209.267 17.8667 208.167 17.35 206.7 17.35ZM243.4 37L242.75 33C241.717 34.4333 240.35 35.5667 238.65 36.4C236.983 37.2 235.217 37.6 233.35 37.6C230.283 37.6 227.983 36.75 226.45 35.05C224.917 33.35 224.15 30.9 224.15 27.7V10.6H234.1V26.5C234.1 27.6333 234.383 28.55 234.95 29.25C235.55 29.9167 236.383 30.25 237.45 30.25C238.683 30.25 239.683 29.85 240.45 29.05C241.217 28.25 241.6 27.2667 241.6 26.1V10.6H251.55V37H243.4ZM255.2 7.5V0.749999H265.15V7.5H255.2ZM255.2 37V10.6H265.15V37H255.2ZM286.15 10C289.717 10 292.467 11.1667 294.4 13.5C296.333 15.8333 297.3 19.2833 297.3 23.85C297.3 28.3833 296.333 31.8167 294.4 34.15C292.467 36.45 289.717 37.6 286.15 37.6C283.083 37.6 280.617 36.6 278.75 34.6V46.85H268.8V10.6H276.9L277.75 14.35C279.683 11.45 282.483 10 286.15 10ZM283.05 17.35C281.583 17.35 280.483 17.8667 279.75 18.9C279.017 19.9333 278.65 21.2833 278.65 22.95V24.6C278.65 26.2667 279.017 27.6333 279.75 28.7C280.483 29.7333 281.583 30.25 283.05 30.25C285.917 30.25 287.35 28.5333 287.35 25.1V22.45C287.35 19.05 285.917 17.35 283.05 17.35ZM313 10C317.833 10 321.516 11.1333 324.05 13.4C326.616 15.6667 327.9 19.1333 327.9 23.8V25.5H308.1C308.1 27.4 308.516 28.8333 309.35 29.8C310.216 30.7667 311.566 31.25 313.4 31.25C315.066 31.25 316.283 30.9 317.05 30.2C317.85 29.5 318.25 28.5667 318.25 27.4H327.9C327.9 30.6 326.683 33.1 324.25 34.9C321.816 36.7 318.266 37.6 313.6 37.6C308.7 37.6 304.9 36.4667 302.2 34.2C299.5 31.9 298.15 28.4333 298.15 23.8C298.15 19.2667 299.466 15.8333 302.1 13.5C304.733 11.1667 308.366 10 313 10ZM313.4 16.35C310.266 16.35 308.516 17.8333 308.15 20.8H317.85C317.85 19.4333 317.45 18.35 316.65 17.55C315.883 16.75 314.8 16.35 313.4 16.35ZM328.899 27.2V19.3H341.649V27.2H328.899ZM369.15 37L354.7 20.3V37H344.55V2.6H354.2L368.65 19.55V2.6H378.8V37H369.15ZM396.4 10C401.233 10 404.917 11.1333 407.45 13.4C410.017 15.6667 411.3 19.1333 411.3 23.8V25.5H391.5C391.5 27.4 391.917 28.8333 392.75 29.8C393.617 30.7667 394.967 31.25 396.8 31.25C398.467 31.25 399.683 30.9 400.45 30.2C401.25 29.5 401.65 28.5667 401.65 27.4H411.3C411.3 30.6 410.083 33.1 407.65 34.9C405.217 36.7 401.667 37.6 397 37.6C392.1 37.6 388.3 36.4667 385.6 34.2C382.9 31.9 381.55 28.4333 381.55 23.8C381.55 19.2667 382.867 15.8333 385.5 13.5C388.133 11.1667 391.767 10 396.4 10ZM396.8 16.35C393.667 16.35 391.917 17.8333 391.55 20.8H401.25C401.25 19.4333 400.85 18.35 400.05 17.55C399.283 16.75 398.2 16.35 396.8 16.35ZM442.131 37H430.531L425.531 28.7H425.331L420.281 37H409.231L419.381 23L410.231 10.6H421.931L426.131 17.6H426.331L430.531 10.6H441.531L432.231 23.25L442.131 37ZM461.781 37L461.131 33C460.098 34.4333 458.731 35.5667 457.031 36.4C455.364 37.2 453.598 37.6 451.731 37.6C448.664 37.6 446.364 36.75 444.831 35.05C443.298 33.35 442.531 30.9 442.531 27.7V10.6H452.481V26.5C452.481 27.6333 452.764 28.55 453.331 29.25C453.931 29.9167 454.764 30.25 455.831 30.25C457.064 30.25 458.064 29.85 458.831 29.05C459.598 28.25 459.981 27.2667 459.981 26.1V10.6H469.931V37H461.781ZM485.78 10C489.314 10 492.297 10.7 494.73 12.1C497.197 13.4667 498.43 15.6 498.43 18.5H489.18C489.18 17.5333 488.747 16.85 487.88 16.45C487.28 16.1167 486.53 15.95 485.63 15.95C483.23 15.95 482.03 16.5167 482.03 17.65C482.03 18.2833 482.447 18.7333 483.28 19C484.114 19.2667 485.48 19.55 487.38 19.85C489.714 20.1833 491.664 20.5833 493.23 21.05C494.797 21.4833 496.164 22.2833 497.33 23.45C498.497 24.5833 499.08 26.1833 499.08 28.25C499.08 31.6167 497.814 34.0167 495.28 35.45C492.78 36.8833 489.497 37.6 485.43 37.6C483.097 37.6 480.897 37.2833 478.83 36.65C476.764 35.9833 475.08 34.9667 473.78 33.6C472.48 32.2333 471.83 30.5 471.83 28.4H481.08V28.6C481.114 29.7333 481.58 30.5333 482.48 31C483.414 31.4333 484.397 31.65 485.43 31.65C488.197 31.65 489.58 31 489.58 29.7C489.58 29.0333 489.147 28.55 488.28 28.25C487.414 27.95 485.997 27.6333 484.03 27.3C481.664 26.9 479.714 26.4667 478.18 26C476.68 25.5333 475.364 24.75 474.23 23.65C473.097 22.5167 472.53 20.95 472.53 18.95C472.53 15.7167 473.747 13.4167 476.18 12.05C478.647 10.6833 481.847 10 485.78 10ZM503.147 24.7L500.397 2.6H512.347L509.497 24.7H503.147ZM501.397 37V27.75H511.297V37H501.397Z" fill="white"/>
</svg>
